<svg xmlns="http://www.w3.org/2000/svg" xmlns:xlink="http://www.w3.org/1999/xlink" viewBox="0,0,256,256" width="480px" height="480px"><g fill="none" fill-rule="nonzero" stroke="none" stroke-width="1" stroke-linecap="butt" stroke-linejoin="miter" stroke-miterlimit="10" stroke-dasharray="" stroke-dashoffset="0" font-family="none" font-weight="none" font-size="none" text-anchor="none" style="mix-blend-mode: normal"><g transform="scale(5.33333,5.33333)"><path d="M42,45l-9,-7.001l1,3.001h-24c-2.761,0 -5,-2.238 -5,-5v-26c0,-2.762 2.239,-5 5,-5h27c2.762,0 5,2.238 5,5z" fill="#5865f2"></path><path d="M32.59,16.24c0,0 -2.6,-2.01 -5.68,-2.24l-0.27,0.55c2.78,0.67 4.05,1.64 5.38,2.83c-2.29,-1.17 -4.56,-2.38 -8.52,-2.38c-3.96,0 -6.23,1.21 -8.52,2.38c1.33,-1.19 2.85,-2.27 5.38,-2.83l-0.27,-0.55c-3.23,0.31 -5.68,2.24 -5.68,2.24c0,0 -2.91,4.19 -3.41,12.38c2.94,3.36 7.39,3.38 7.39,3.38l0.92,-1.23c-1.57,-0.54 -3.36,-1.51 -4.9,-3.27c1.84,1.38 4.61,2.5 9.09,2.5c4.48,0 7.25,-1.12 9.09,-2.5c-1.54,1.76 -3.33,2.73 -4.9,3.27l0.92,1.23c0,0 4.45,-0.02 7.39,-3.38c-0.5,-8.19 -3.41,-12.38 -3.41,-12.38zM20,27c-1.1,0 -2,-1.12 -2,-2.5c0,-1.38 0.9,-2.5 2,-2.5c1.1,0 2,1.12 2,2.5c0,1.38 -0.9,2.5 -2,2.5zM27,27c-1.1,0 -2,-1.12 -2,-2.5c0,-1.38 0.9,-2.5 2,-2.5c1.1,0 2,1.12 2,2.5c0,1.38 -0.9,2.5 -2,2.5z" fill="#ffffff"></path></g></g></svg>